<svg width="27" height="19" viewBox="0 0 27 19" fill="none" xmlns="http://www.w3.org/2000/svg">
<path d="M7.25 2.04166H26.0005M7.25 9.33353H26.0005M7.25 16.6254H26.0005" stroke="#DFAD9A" stroke-linecap="round" stroke-linejoin="round"/>
<path d="M2.0417 3.08339C2.61701 3.08339 3.08339 2.61701 3.08339 2.0417C3.08339 1.46638 2.61701 1 2.0417 1C1.46638 1 1 1.46638 1 2.0417C1 2.61701 1.46638 3.08339 2.0417 3.08339Z" stroke="#DFAD9A" stroke-linecap="round" stroke-linejoin="round"/>
<path d="M2.0417 10.375C2.61701 10.375 3.08339 9.90863 3.08339 9.33332C3.08339 8.75801 2.61701 8.29163 2.0417 8.29163C1.46638 8.29163 1 8.75801 1 9.33332C1 9.90863 1.46638 10.375 2.0417 10.375Z" stroke="#DFAD9A" stroke-linecap="round" stroke-linejoin="round"/>
<path d="M2.0417 17.6678C2.61701 17.6678 3.08339 17.2015 3.08339 16.6261C3.08339 16.0508 2.61701 15.5844 2.0417 15.5844C1.46638 15.5844 1 16.0508 1 16.6261C1 17.2015 1.46638 17.6678 2.0417 17.6678Z" stroke="#DFAD9A" stroke-linecap="round" stroke-linejoin="round"/>
</svg>
