<svg width="19" height="19" viewBox="0 0 19 19" fill="none" xmlns="http://www.w3.org/2000/svg">
<path d="M9.5 18.268L9.0516 18.7853C9.11043 18.8534 9.18032 18.9074 9.25726 18.9442C9.33421 18.981 9.41669 19 9.5 19C9.58331 19 9.66579 18.981 9.74274 18.9442C9.81968 18.9074 9.88957 18.8534 9.9484 18.7853L9.5 18.268ZM9.5 3.65359L9.0516 4.17094C9.11043 4.23899 9.18032 4.29298 9.25726 4.32982C9.33421 4.36666 9.41669 4.38562 9.5 4.38562C9.58331 4.38562 9.66579 4.36666 9.74274 4.32982C9.81968 4.29298 9.88957 4.23899 9.9484 4.17094L9.5 3.65359ZM9.9484 17.7506L2.39273 9.03461L1.4972 10.0678L9.0516 18.7853L9.9484 17.7506ZM16.6073 9.03461L9.0516 17.7506L9.9484 18.7853L17.5028 10.0678L16.6073 9.03461ZM7.83053 2.76066L9.0516 4.17094L9.9484 3.13625L8.72607 1.72742L7.83053 2.76066ZM9.9484 4.17094L11.1695 2.76066L10.2739 1.72742L9.0516 3.13625L9.9484 4.17094ZM13.8877 0C12.5324 0 11.2328 0.621111 10.2739 1.72742L11.1695 2.76066C11.8905 1.92911 12.8682 1.46181 13.8877 1.46144V0ZM17.7333 5.89836C17.7333 7.07482 17.328 8.20305 16.606 9.03461L17.5028 10.0678C18.4612 8.96198 18.9997 7.46223 19 5.89836H17.7333ZM19 5.89836C19 4.33402 18.4614 2.83375 17.5027 1.72759C16.5439 0.621433 15.2436 0 13.8877 0V1.46144C14.9076 1.46144 15.8858 1.9289 16.607 2.76098C17.3282 3.59307 17.7333 4.72162 17.7333 5.89836H19ZM5.11227 1.46144C6.13193 1.46144 7.1098 1.9291 7.83053 2.76212L8.72607 1.72742C7.76758 0.621641 6.46771 0.000296812 5.11227 0V1.46144ZM1.26667 5.89836C1.26667 4.72162 1.67183 3.59307 2.39302 2.76098C3.11421 1.9289 4.09235 1.46144 5.11227 1.46144V0C3.75641 0 2.45608 0.621433 1.49735 1.72759C0.538612 2.83375 0 4.33402 0 5.89836H1.26667ZM2.39273 9.03461C2.03552 8.62288 1.75337 8.13399 1.55994 7.59587C1.36651 7.05775 1.26686 6.48093 1.26667 5.89836H0C0 7.4621 0.538333 8.96154 1.4972 10.0678L2.39273 9.03461Z" fill="#0C1617"/>
</svg>
