<svg width="26" height="26" viewBox="0 0 26 26" fill="none" xmlns="http://www.w3.org/2000/svg">
<path d="M20.1143 0C19.6203 0 19.1833 0.24766 18.9208 0.624813C18.2002 0.442813 17.4578 0.350289 16.7004 0.350289C15.2681 0.350289 13.8983 0.67473 12.6291 1.31457C12.4328 1.41355 12.3539 1.65283 12.4529 1.84905C12.5228 1.98783 12.663 2.06797 12.8085 2.06797C12.8687 2.06797 12.9298 2.05425 12.9873 2.02531C14.1444 1.44198 15.3937 1.14623 16.7003 1.14623C17.3697 1.14623 18.026 1.22627 18.6638 1.38191C18.6627 1.40405 18.6621 1.42634 18.6621 1.44874C18.6621 2.24758 19.3135 2.89748 20.1143 2.89748C20.9152 2.89748 21.5666 2.24758 21.5666 1.44874C21.5667 0.649898 20.9152 0 20.1143 0ZM20.1143 2.10153C19.7525 2.10153 19.4581 1.80868 19.4581 1.44874C19.4581 1.08875 19.7525 0.795945 20.1143 0.795945C20.4762 0.795945 20.7707 1.0888 20.7707 1.44874C20.7707 1.80868 20.4763 2.10153 20.1143 2.10153Z" fill="#DFAD9A"/>
<path d="M25.9344 5.50178C25.9344 4.70294 25.2829 4.05305 24.482 4.05305C23.6812 4.05305 23.0298 4.70294 23.0298 5.50178C23.0298 6.30062 23.6812 6.95052 24.482 6.95052C24.5144 6.95052 24.5465 6.9491 24.5784 6.94697C24.8168 7.72062 24.9377 8.52611 24.9377 9.35461C24.9377 13.3586 22.0456 16.7016 18.2337 17.4197C18.2557 17.1645 18.2675 16.9064 18.2675 16.6455C18.2675 16.1488 18.2266 15.6502 18.1457 15.1634C18.1097 14.9465 17.9046 14.7998 17.6879 14.8361C17.4711 14.8721 17.3245 15.0771 17.3605 15.2938C17.4343 15.7376 17.4716 16.1924 17.4716 16.6455C17.4716 16.9447 17.455 17.24 17.4236 17.531C17.1851 17.5518 16.944 17.563 16.7002 17.563C12.1581 17.563 8.4628 13.8807 8.4628 9.35461C8.4628 9.05647 8.4793 8.76113 8.51043 8.46919C8.74905 8.44837 8.99036 8.43714 9.23432 8.43714C12.7292 8.43714 15.8539 10.6438 17.0098 13.9282C17.0828 14.1355 17.3099 14.2443 17.5172 14.1715C17.7245 14.0985 17.8335 13.8713 17.7605 13.664C16.4927 10.0616 13.0663 7.64125 9.23432 7.64125C9.03373 7.64125 8.83482 7.64851 8.63743 7.66141C9.03343 5.76595 10.0909 4.06879 11.6712 2.85308C11.8454 2.71907 11.8779 2.46918 11.744 2.295C11.6101 2.12082 11.3602 2.08817 11.1859 2.22218C9.38148 3.61023 8.19853 5.5709 7.80863 7.75373C3.50254 8.43714 0.20084 12.164 0.20084 16.6455C0.20084 17.5669 0.336832 18.4626 0.605871 19.3223C0.239383 19.5855 0 20.0145 0 20.4984C0 21.2972 0.651473 21.9471 1.45234 21.9471C2.25316 21.9471 2.90459 21.2972 2.90459 20.4984C2.90459 19.6996 2.25316 19.0497 1.45234 19.0497C1.42 19.0497 1.38785 19.0511 1.35596 19.0532C1.11749 18.2795 0.996684 17.474 0.996684 16.6455C0.996684 12.6419 3.88827 9.29915 7.69956 8.58055C7.67792 8.83644 7.66675 9.09461 7.66675 9.35461C7.66675 14.3196 11.7191 18.3589 16.7001 18.3589C16.9 18.3589 17.0982 18.3517 17.2948 18.3388C16.5095 22.0553 13.1938 24.8539 9.23411 24.8539C8.56477 24.8539 7.90847 24.7738 7.27066 24.6181C7.27172 24.5959 7.27233 24.5737 7.27233 24.5513C7.27233 23.7525 6.62091 23.1026 5.82014 23.1026C5.01927 23.1026 4.3678 23.7525 4.3678 24.5513C4.3678 25.3501 5.01932 26.0001 5.82019 26.0001C6.31429 26.0001 6.75127 25.7524 7.01365 25.3753C7.73429 25.5573 8.47671 25.6499 9.23416 25.6499C13.6671 25.6499 17.3644 22.4505 18.1244 18.2467C22.431 17.5638 25.7336 13.8366 25.7336 9.35461C25.7336 8.43323 25.5976 7.53755 25.3285 6.67788C25.6951 6.41468 25.9344 5.98573 25.9344 5.50178ZM1.45234 19.8456C1.81421 19.8456 2.10864 20.1384 2.10864 20.4984C2.10864 20.8584 1.81421 21.1512 1.45234 21.1512C1.09043 21.1512 0.795945 20.8583 0.795945 20.4984C0.795895 20.1385 1.09038 19.8456 1.45234 19.8456ZM5.82024 25.2041C5.45832 25.2041 5.16384 24.9113 5.16384 24.5514C5.16384 24.1914 5.45832 23.8986 5.82024 23.8986C6.18211 23.8986 6.47649 24.1914 6.47649 24.5514C6.47649 24.9113 6.18211 25.2041 5.82024 25.2041ZM24.482 6.15463C24.1202 6.15463 23.8258 5.86177 23.8258 5.50184C23.8258 5.14185 24.1202 4.84904 24.482 4.84904C24.844 4.84904 25.1384 5.1419 25.1384 5.50184C25.1385 5.86177 24.844 6.15463 24.482 6.15463Z" fill="#DFAD9A"/>
<path d="M22.1657 20.2914C21.4346 20.0896 21.3889 20.0439 21.1871 19.313C21.1098 19.0324 20.8525 18.8364 20.5613 18.8364C20.2702 18.8364 20.0128 19.0324 19.9356 19.3128C19.7338 20.0439 19.6881 20.0896 18.9568 20.2915C18.6764 20.369 18.4805 20.6263 18.4805 20.9171C18.4805 21.2079 18.6763 21.4653 18.9569 21.5429C19.6881 21.7448 19.7338 21.7906 19.9356 22.5214C20.0128 22.802 20.2702 22.9979 20.5613 22.9979C20.8525 22.9979 21.1098 22.802 21.187 22.5216C21.389 21.7904 21.4347 21.7447 22.1659 21.5429C22.4462 21.4653 22.642 21.2081 22.642 20.9172C22.642 20.6263 22.4461 20.369 22.1657 20.2914ZM20.5613 21.8643C20.3679 21.3523 20.1262 21.1106 19.6141 20.9172C20.126 20.7238 20.3679 20.482 20.5613 19.9701C20.7548 20.482 20.9965 20.7239 21.5084 20.9172C20.9966 21.1106 20.7548 21.3523 20.5613 21.8643Z" fill="#DFAD9A"/>
<path d="M7.36093 3.44815C6.62988 3.24629 6.58413 3.20059 6.38232 2.4697C6.30508 2.18913 6.04772 1.99316 5.75654 1.99316C5.46541 1.99316 5.20805 2.18913 5.13087 2.46954C4.92911 3.20054 4.88336 3.24629 4.15216 3.4482C3.8717 3.52574 3.67578 3.78305 3.67578 4.07398C3.67578 4.36475 3.87164 4.62206 4.15221 4.69965C4.88336 4.90156 4.92906 4.94731 5.13082 5.67816C5.20811 5.95872 5.46546 6.15469 5.75659 6.15469C6.04767 6.15469 6.30503 5.95872 6.38227 5.67831C6.58423 4.94711 6.62993 4.90141 7.36113 4.69955C7.64144 4.62201 7.83725 4.3647 7.83725 4.07393C7.83725 3.783 7.64139 3.52564 7.36093 3.44815ZM5.75664 5.0211C5.56317 4.50912 5.3215 4.26735 4.80937 4.07398C5.3214 3.8805 5.56317 3.63878 5.75654 3.12691C5.95002 3.63883 6.19174 3.88065 6.70366 4.07398C6.19194 4.26735 5.95012 4.50907 5.75664 5.0211Z" fill="#DFAD9A"/>
</svg>
