<svg width="19" height="19" viewBox="0 0 19 19" fill="none" xmlns="http://www.w3.org/2000/svg">
<path d="M18.064 15.9502C18.0543 16.2953 17.9754 16.6349 17.8319 16.9489C17.6884 17.2628 17.4833 17.5448 17.2288 17.778C16.9742 18.0111 16.6754 18.1908 16.3501 18.3063C16.0248 18.4218 15.6796 18.4707 15.335 18.4502C13.182 18.4622 11.028 18.4502 8.875 18.4502C8.74239 18.4502 8.61521 18.3975 8.52145 18.3038C8.42768 18.21 8.375 18.0828 8.375 17.9502C8.375 17.8176 8.42768 17.6904 8.52145 17.5967C8.61521 17.5029 8.74239 17.4502 8.875 17.4502C11.075 17.4502 13.275 17.4822 15.475 17.4502C16.582 17.4342 17.064 16.6022 17.064 15.6122V3.14821C17.0716 2.8335 16.9828 2.52398 16.8097 2.26109C16.6365 1.9982 16.3871 1.79448 16.095 1.67721C15.7497 1.58307 15.3905 1.55091 15.034 1.58221H8.875C8.74239 1.58221 8.61521 1.52953 8.52145 1.43576C8.42768 1.342 8.375 1.21482 8.375 1.08221C8.375 0.949603 8.42768 0.822426 8.52145 0.728658C8.61521 0.63489 8.74239 0.582211 8.875 0.582211C11.1 0.582211 13.34 0.497211 15.563 0.582211C15.9033 0.590683 16.2385 0.666785 16.5492 0.806085C16.8598 0.945385 17.1396 1.1451 17.3722 1.39359C17.6049 1.64208 17.7858 1.93439 17.9044 2.25348C18.023 2.57258 18.0769 2.91208 18.063 3.25221L18.064 15.9502Z" fill="#0C1617"/>
<path d="M12.9143 9.87231C12.9987 9.78991 13.0481 9.67818 13.0523 9.56031C13.0553 9.54647 13.0573 9.53244 13.0583 9.51831C13.0573 9.50452 13.0553 9.49082 13.0523 9.47731C13.0488 9.359 12.9993 9.24672 12.9143 9.16431L9.2453 5.49631C9.151 5.40523 9.0247 5.35484 8.8936 5.35598C8.76251 5.35712 8.6371 5.4097 8.5444 5.5024C8.45169 5.59511 8.39911 5.72051 8.39797 5.85161C8.39683 5.98271 8.44723 6.10901 8.53831 6.20331L11.3543 9.01831H0.612305C0.479696 9.01831 0.352519 9.07099 0.258751 9.16476C0.164983 9.25853 0.112305 9.3857 0.112305 9.51831C0.112305 9.65092 0.164983 9.7781 0.258751 9.87187C0.352519 9.96563 0.479696 10.0183 0.612305 10.0183H11.3543L8.53831 12.8333C8.44723 12.9276 8.39683 13.0539 8.39797 13.185C8.39911 13.3161 8.45169 13.4415 8.5444 13.5342C8.6371 13.6269 8.76251 13.6795 8.8936 13.6806C9.0247 13.6818 9.151 13.6314 9.2453 13.5403L12.9143 9.87231Z" fill="#0C1617"/>
</svg>
