<svg width="18" height="18" viewBox="0 0 18 18" fill="none" xmlns="http://www.w3.org/2000/svg">
<path d="M17.9517 15.4946C17.942 15.8397 17.8631 16.1793 17.7196 16.4933C17.5761 16.8073 17.371 17.0892 17.1165 17.3224C16.8619 17.5556 16.5631 17.7352 16.2378 17.8507C15.9125 17.9662 15.5673 18.0151 15.2227 17.9946C13.0697 18.0066 10.9157 17.9946 8.7627 17.9946C8.63009 17.9946 8.50291 17.942 8.40914 17.8482C8.31537 17.7544 8.2627 17.6273 8.2627 17.4946C8.2627 17.362 8.31537 17.2349 8.40914 17.1411C8.50291 17.0473 8.63009 16.9946 8.7627 16.9946C10.9627 16.9946 13.1627 17.0266 15.3627 16.9946C16.4697 16.9786 16.9517 16.1466 16.9517 15.1566V2.69265C16.9593 2.37793 16.8705 2.06841 16.6974 1.80552C16.5242 1.54263 16.2748 1.33892 15.9827 1.22164C15.6374 1.12751 15.2782 1.09534 14.9217 1.12665H8.7627C8.63009 1.12665 8.50291 1.07397 8.40914 0.980199C8.31537 0.88643 8.2627 0.759253 8.2627 0.626645C8.2627 0.494037 8.31537 0.36686 8.40914 0.273092C8.50291 0.179323 8.63009 0.126645 8.7627 0.126645C10.9877 0.126645 13.2277 0.041645 15.4507 0.126645C15.791 0.135117 16.1262 0.211219 16.4368 0.350519C16.7475 0.489819 17.0272 0.689532 17.2599 0.938025C17.4926 1.18652 17.6735 1.47882 17.7921 1.79792C17.9107 2.11701 17.9646 2.45651 17.9507 2.79665L17.9517 15.4946Z" fill="#F9F2E8"/>
<path d="M12.802 9.41675C12.8864 9.33434 12.9358 9.22261 12.94 9.10475C12.943 9.09091 12.945 9.07687 12.946 9.06275C12.945 9.04895 12.943 9.03525 12.94 9.02175C12.9365 8.90343 12.887 8.79116 12.802 8.70875L9.133 5.04075C9.0387 4.94967 8.9124 4.89927 8.7813 4.90041C8.6502 4.90155 8.52479 4.95413 8.43209 5.04684C8.33939 5.13954 8.2868 5.26495 8.28566 5.39605C8.28452 5.52714 8.33492 5.65345 8.426 5.74775L11.242 8.56275H0.5C0.367392 8.56275 0.240215 8.61542 0.146446 8.70919C0.0526783 8.80296 0 8.93014 0 9.06275C0 9.19535 0.0526783 9.32253 0.146446 9.4163C0.240215 9.51007 0.367392 9.56275 0.5 9.56275H11.242L8.426 12.3777C8.33492 12.472 8.28452 12.5983 8.28566 12.7294C8.2868 12.8605 8.33939 12.986 8.43209 13.0787C8.52479 13.1714 8.6502 13.2239 8.7813 13.2251C8.9124 13.2262 9.0387 13.1758 9.133 13.0847L12.802 9.41675Z" fill="#F9F2E8"/>
</svg>
