<svg width="20" height="25" viewBox="0 0 20 25" fill="none" xmlns="http://www.w3.org/2000/svg">
<path d="M5.04332 6.70244C5.47866 6.46135 5.83909 6.12585 6.08581 5.73198L6.6555 4.82198C6.91866 4.40198 7.32247 4.10749 7.78629 3.98198L5.99159 2.19079C5.84826 2.04773 5.84826 1.8158 5.99159 1.67294L7.56021 0.107193C7.62901 0.0385285 7.72246 0 7.81974 0H11.7415C11.8387 0 11.932 0.0385285 12.0008 0.107193L13.5694 1.67294C13.7127 1.8158 13.7127 2.04773 13.5694 2.19079L11.7747 3.98198C12.2385 4.10749 12.6424 4.40179 12.9055 4.82198L13.476 5.73293C13.7227 6.12699 14.0799 6.4604 14.5087 6.69729C17.992 8.62143 19.9486 12.4264 19.4934 16.3908C18.9812 20.85 15.3645 24.4446 10.8937 24.9381C10.5186 24.9793 10.1455 25.0001 9.77458 25.0001C8.73189 25.0001 7.70813 24.8366 6.71933 24.5116C5.43528 24.0897 4.27105 23.417 3.25913 22.5125C1.18886 20.6622 0.00149918 18.0113 0.00149918 15.2396C0.00149918 11.6959 1.93341 8.42459 5.04332 6.70244ZM9.89976 3.91408L10.3856 2.29798H9.17565L9.66145 3.91408H9.89976ZM10.805 3.91408L12.4243 2.29798H11.1517L10.6659 3.91408H10.805ZM10.6057 1.56556L10.8561 0.732424H8.70514L8.95549 1.56556H10.6057ZM8.4095 2.29798H7.13691L8.75617 3.91408H8.89529L8.4095 2.29798ZM7.13691 1.56556H8.18934L7.94644 0.757601L7.13691 1.56556ZM11.6148 0.757601L11.3719 1.56556H12.4243L11.6148 0.757601ZM3.74856 21.9668C4.6848 22.8037 5.7615 23.4257 6.94886 23.816C8.18877 24.2236 9.48868 24.3561 10.8129 24.21C14.9467 23.754 18.2907 20.4304 18.7643 16.3075C19.1855 12.6389 17.3757 9.1181 14.1533 7.33816C13.6159 7.04138 13.1664 6.62042 12.8537 6.12127L12.2833 5.21013C12.0621 4.85727 11.6813 4.6465 11.2641 4.6465H8.29693C7.87994 4.6465 7.49887 4.85727 7.27775 5.21013L6.70806 6.12012C6.39579 6.6189 5.94305 7.04176 5.39935 7.34293C2.5226 8.93595 0.735355 11.9618 0.735355 15.2396C0.735355 17.8032 1.83365 20.2553 3.74856 21.9668Z" fill="#DFAD9A"/>
<path d="M17.2462 14.889C17.1594 13.0297 16.3849 11.2803 15.0651 9.96309C13.7453 8.64587 11.9924 7.87263 10.1295 7.78604C8.27864 7.7004 6.47401 8.2953 5.04739 9.46184C4.89068 9.59001 4.65944 9.56712 4.53101 9.41072C4.40259 9.25432 4.42552 9.02353 4.58223 8.89535C6.14951 7.6138 8.13187 6.95996 10.1637 7.05438C12.2095 7.14955 14.1346 7.99852 15.5839 9.44505C17.0333 10.8918 17.8841 12.8129 17.9793 14.8549C18.0739 16.8828 17.419 18.8611 16.1349 20.4253C16.0625 20.5136 15.9572 20.5594 15.8509 20.5594C15.7691 20.5594 15.6868 20.5323 15.6185 20.4764C15.4618 20.3482 15.4389 20.1176 15.5673 19.9611C16.7361 18.5372 17.3324 16.7359 17.2462 14.889Z" fill="#DFAD9A"/>
<path d="M3.42237 10.0538C3.5508 9.89735 3.78204 9.87446 3.93875 10.0026C4.09546 10.1308 4.11839 10.3616 3.98996 10.518C2.82115 11.9418 2.2247 13.7431 2.31108 15.5902C2.39784 17.4495 3.1724 19.1987 4.4922 20.516C5.81199 21.8332 7.56483 22.6064 9.42776 22.693C11.2784 22.7792 13.0831 22.1839 14.5099 21.0172C14.6666 20.889 14.8978 20.9121 15.0263 21.0685C15.1547 21.2249 15.1318 21.4557 14.9749 21.5839C13.5072 22.7842 11.6756 23.4336 9.77978 23.4336C9.65135 23.4336 9.52236 23.4306 9.39355 23.4247C7.34754 23.3295 5.4227 22.4805 3.97334 21.034C2.52397 19.5875 1.67316 17.6662 1.57799 15.6242C1.4832 13.5963 2.13832 11.618 3.42237 10.0538Z" fill="#DFAD9A"/>
</svg>
