<svg width="30" height="27" viewBox="0 0 30 27" fill="none" xmlns="http://www.w3.org/2000/svg">
<path d="M27.7693 15.6822V13.4801C27.7693 12.7338 27.1621 12.1266 26.4158 12.1266H25.7372C25.8655 11.7154 25.9306 11.287 25.9306 10.8462C25.9306 9.16389 24.9602 7.70479 23.5502 6.99692L24.2112 6.33797C24.3866 6.16366 24.4833 5.93098 24.4833 5.68284V4.91936C24.4833 4.40983 24.0691 3.99534 23.5599 3.99534H19.6921C19.1828 3.99534 18.7686 4.40983 18.7686 4.91936V5.68284C18.7686 5.92729 18.8678 6.16606 19.0402 6.33745L19.7018 6.99703C18.304 7.69875 17.339 9.13887 17.3224 10.8028C17.2181 10.8105 17.1132 10.8279 17.0087 10.856L16.6307 10.9576L14.1365 4.10461C13.9372 3.55682 13.3292 3.27329 12.7812 3.47274L11.4873 3.94331C10.1492 4.43045 9.45678 5.91563 9.94375 7.25403L11.7669 12.264L9.47395 12.8798C9.22035 12.948 8.98381 13.0761 8.79033 13.2499L4.32397 17.2484L4.3092 17.2319C4.09674 16.9946 3.80465 16.8542 3.4866 16.8366C3.16844 16.8185 2.86275 16.9263 2.62545 17.1388L0.396543 19.1341C-0.0933589 19.5727 -0.135078 20.328 0.303438 20.8179L1.15926 21.7738C1.32109 21.9547 1.599 21.97 1.77982 21.8081C1.96065 21.6462 1.976 21.3684 1.8141 21.1876L0.958282 20.2316C0.843028 20.1028 0.853985 19.9042 0.982774 19.7889L3.21168 17.7936C3.34035 17.6784 3.53846 17.6886 3.65436 17.818C3.97645 18.1778 8.12629 22.8134 8.33066 23.0416C8.44592 23.1704 8.43496 23.369 8.30623 23.4843L6.07732 25.4796C6.01498 25.5355 5.93477 25.5635 5.85092 25.5591C5.76731 25.5544 5.69055 25.5175 5.63471 25.4552L3.18449 22.7182C3.0226 22.5374 2.74475 22.5221 2.56393 22.6839C2.38311 22.8458 2.36775 23.1237 2.52965 23.3045L4.97986 26.0415C5.41902 26.532 6.17254 26.5741 6.66356 26.1345L8.89246 24.1392C9.38231 23.7006 9.42402 22.9453 8.98551 22.4555L8.97109 22.4394L9.48643 21.978H19.1982C19.2378 21.978 19.2772 21.9727 19.3154 21.9621L24.8349 20.435C25.0688 20.3704 25.206 20.1282 25.1413 19.8943C25.0766 19.6604 24.8347 19.5232 24.6006 19.5879L19.1385 21.099H9.31838C9.21022 21.099 9.1058 21.1389 9.02523 21.211L8.38481 21.7846L4.9102 17.9033L9.37709 13.9043C9.46879 13.8219 9.58117 13.7612 9.70199 13.7288L17.2368 11.7049C17.6498 11.5939 18.0777 11.8252 18.2111 12.2323C18.2377 12.3132 18.2512 12.3977 18.2512 12.4834C18.2512 12.7854 18.0845 13.0593 17.8159 13.1982C16.7225 13.7643 14.7174 14.7958 13.5755 15.3434C13.1284 15.5582 12.8394 16.0178 12.8394 16.5142C12.8394 16.8619 12.9748 17.1882 13.2195 17.432C13.4644 17.6779 13.7908 17.8132 14.1384 17.8132H19.8239C19.8467 17.8132 19.8695 17.8114 19.8921 17.8079L27.8518 16.5574C28.5167 16.4524 29.1211 16.9671 29.1211 17.6427V18.0001C29.1211 18.1989 28.9876 18.3745 28.7959 18.4274L26.6191 19.0297C26.3852 19.0945 26.248 19.3366 26.3127 19.5705C26.3773 19.8037 26.6188 19.9417 26.8535 19.8769L29.0299 19.2746C29.6011 19.1172 30 18.593 30 18.0001V17.6427C30 16.4506 28.9524 15.5288 27.7693 15.6822ZM10.7697 6.95356C10.4484 6.07049 10.9052 5.09063 11.7878 4.7693L13.0816 4.29879C13.1743 4.26498 13.277 4.3128 13.3106 4.4052L15.7787 11.1864L12.6189 12.0352L10.7697 6.95356ZM19.6602 5.71459C19.652 5.70645 19.6475 5.6952 19.6475 5.68289V4.91942C19.6475 4.89452 19.6675 4.8743 19.6921 4.8743H23.5599C23.5844 4.8743 23.6044 4.89452 23.6044 4.91942V5.68289C23.6044 5.6952 23.6 5.70639 23.5912 5.71506L22.6403 6.66311C22.3149 6.58418 21.9756 6.54135 21.6262 6.54135C21.2768 6.54135 20.9373 6.58424 20.6117 6.66323L19.6602 5.71459ZM18.2039 10.9791C18.2022 10.9349 18.2003 10.8907 18.2003 10.8463C18.2003 8.95717 19.7372 7.42026 21.6263 7.42026C23.5151 7.42026 25.0517 8.95717 25.0517 10.8463C25.0517 11.292 24.9675 11.7212 24.8036 12.1266H23.8322C24.0551 11.7423 24.1781 11.3014 24.1781 10.8463C24.1781 9.43893 23.0334 8.29389 21.6263 8.29389C20.2189 8.29389 19.0739 9.43887 19.0739 10.8463C19.0739 11.3014 19.1969 11.7423 19.4199 12.1266H19.0909C18.9797 11.6146 18.6494 11.2039 18.2039 10.9791ZM20.5503 12.1266C20.1742 11.8101 19.9528 11.3411 19.9528 10.8462C19.9528 9.9235 20.7035 9.17274 21.6262 9.17274C22.5486 9.17274 23.2991 9.92344 23.2991 10.8462C23.2991 11.3409 23.0778 11.81 22.7021 12.1266H20.5503ZM13.8409 16.8104C13.7618 16.7316 13.7183 16.6264 13.7183 16.5141C13.7183 16.3536 13.8116 16.205 13.9558 16.1357C14.3781 15.9332 14.9163 15.6657 15.4826 15.3801V16.9342H14.1384C14.0262 16.9342 13.9209 16.8907 13.8409 16.8104ZM19.7896 16.9342H16.3615V14.9342C17.058 14.579 17.7302 14.2324 18.2199 13.9788C18.6208 13.7714 18.9123 13.4196 19.0469 13.0055H26.4158C26.6775 13.0055 26.8904 13.2184 26.8904 13.4801V15.8187L19.7896 16.9342Z" fill="#DFAD9A"/>
<path d="M21.627 1.78793C21.8697 1.78793 22.0664 1.59117 22.0664 1.34848V0.439453C22.0664 0.196758 21.8697 0 21.627 0C21.3842 0 21.1875 0.196758 21.1875 0.439453V1.34848C21.1875 1.59117 21.3843 1.78793 21.627 1.78793Z" fill="#DFAD9A"/>
<path d="M24.5489 2.89558C24.6613 2.89558 24.7738 2.85269 24.8597 2.76685L25.5024 2.12408C25.674 1.95245 25.674 1.67419 25.5024 1.50257C25.3307 1.33095 25.0525 1.33095 24.8809 1.50257L24.2381 2.14534C24.0665 2.31697 24.0665 2.59523 24.2381 2.76685C24.3239 2.85269 24.4364 2.89558 24.5489 2.89558Z" fill="#DFAD9A"/>
<path d="M18.3926 2.76677C18.4784 2.85255 18.5909 2.8955 18.7034 2.8955C18.8158 2.8955 18.9283 2.85261 19.0141 2.76677C19.1858 2.59515 19.1858 2.31689 19.0141 2.14527L18.3714 1.5025C18.1997 1.33087 17.9215 1.33087 17.7498 1.5025C17.5782 1.67412 17.5782 1.95238 17.7498 2.124L18.3926 2.76677Z" fill="#DFAD9A"/>
</svg>
