<svg width="37" height="22" viewBox="0 0 37 22" fill="none" xmlns="http://www.w3.org/2000/svg">
<path d="M19.092 7.33333C18.9317 7.33822 18.7775 7.40422 18.664 7.51911L15.4105 10.7336L13.4063 8.75356C12.8452 8.17422 11.9387 9.06889 12.5245 9.62378L14.9702 12.0413C15.2132 12.2821 15.6078 12.2821 15.852 12.0413L19.5459 8.39056C19.9529 7.99944 19.6532 7.33333 19.0932 7.33333H19.092ZM0.616667 12.2222H4.31667C4.6583 12.2222 4.93333 12.4948 4.93333 12.8333C4.93333 13.1719 4.6583 13.4444 4.31667 13.4444H0.616667C0.275033 13.4444 0 13.1719 0 12.8333C0 12.4948 0.275033 12.2222 0.616667 12.2222ZM0.616667 7.33333H4.31667C4.6583 7.33333 4.93333 7.60589 4.93333 7.94444C4.93333 8.283 4.6583 8.55556 4.31667 8.55556H0.616667C0.275033 8.55556 0 8.283 0 7.94444C0 7.60589 0.275033 7.33333 0.616667 7.33333ZM0.616667 2.44444H4.31667C4.6583 2.44444 4.93333 2.717 4.93333 3.05556C4.93333 3.39411 4.6583 3.66667 4.31667 3.66667H0.616667C0.275033 3.66667 0 3.39411 0 3.05556C0 2.717 0.275033 2.44444 0.616667 2.44444ZM30.2167 15.8889C28.5208 15.8889 27.1333 17.2639 27.1333 18.9444C27.1333 20.625 28.5208 22 30.2167 22C31.9125 22 33.3 20.625 33.3 18.9444C33.3 17.2639 31.9125 15.8889 30.2167 15.8889ZM30.2167 17.1111C31.2453 17.1111 32.0667 17.9251 32.0667 18.9444C32.0667 19.9638 31.2453 20.7778 30.2167 20.7778C29.1881 20.7778 28.3667 19.9638 28.3667 18.9444C28.3667 17.9251 29.1881 17.1111 30.2167 17.1111ZM14.1833 15.8889C12.4875 15.8889 11.1 17.2639 11.1 18.9444C11.1 20.625 12.4875 22 14.1833 22C15.8792 22 17.2667 20.625 17.2667 18.9444C17.2667 17.2639 15.8792 15.8889 14.1833 15.8889ZM14.1833 17.1111C15.2119 17.1111 16.0333 17.9251 16.0333 18.9444C16.0333 19.9638 15.2119 20.7778 14.1833 20.7778C13.1547 20.7778 12.3333 19.9638 12.3333 18.9444C12.3333 17.9251 13.1547 17.1111 14.1833 17.1111ZM8.01667 0C7.00287 0 6.16667 0.828667 6.16667 1.83333V15.2778C6.16667 16.2824 7.00287 17.1111 8.01667 17.1111H10.4833C11.3171 17.1233 11.3171 15.8767 10.4833 15.8889H8.01667C7.66393 15.8889 7.4 15.6273 7.4 15.2778V1.83333C7.4 1.48378 7.66393 1.22222 8.01667 1.22222H24.05C24.4027 1.22222 24.6667 1.48378 24.6667 1.83333V15.8889H17.8833C17.0693 15.8889 17.0841 17.1233 17.8833 17.1111H26.5167C27.3307 17.1111 27.3233 15.8889 26.5167 15.8889H25.9V4.88889H31.1133L35.7667 12.0951V15.2778C35.7667 15.6273 35.5027 15.8889 35.15 15.8889H33.9167C33.1101 15.8889 33.1101 17.1111 33.9167 17.1111H35.15C36.1638 17.1111 37 16.2824 37 15.2778V11.9167C37 11.8006 36.9667 11.6844 36.9038 11.5867L31.9705 3.94778C31.857 3.773 31.6621 3.66667 31.45 3.66667H25.9V1.83333C25.9 0.828667 25.0638 0 24.05 0H8.01667Z" fill="#DFAD9A"/>
</svg>
