<svg width="21" height="21" viewBox="0 0 21 21" fill="none" xmlns="http://www.w3.org/2000/svg">
<path d="M10.5 20.1909L10.0044 20.7627C10.0694 20.8379 10.1467 20.8976 10.2317 20.9383C10.3168 20.979 10.4079 21 10.5 21C10.5921 21 10.6832 20.979 10.7683 20.9383C10.8533 20.8976 10.9306 20.8379 10.9956 20.7627L10.5 20.1909ZM10.5 4.03818L10.0044 4.60999C10.0694 4.6852 10.1467 4.74488 10.2317 4.78559C10.3168 4.82631 10.4079 4.84726 10.5 4.84726C10.5921 4.84726 10.6832 4.82631 10.7683 4.78559C10.8533 4.74488 10.9306 4.6852 10.9956 4.60999L10.5 4.03818ZM10.9956 19.6191L2.6446 9.98562L1.6548 11.1276L10.0044 20.7627L10.9956 19.6191ZM18.3554 9.98562L10.0044 19.6191L10.9956 20.7627L19.3452 11.1276L18.3554 9.98562ZM8.6548 3.05125L10.0044 4.60999L10.9956 3.46638L9.6446 1.90925L8.6548 3.05125ZM10.9956 4.60999L12.3452 3.05125L11.3554 1.90925L10.0044 3.46638L10.9956 4.60999ZM15.3496 0C13.8516 0 12.4152 0.686491 11.3554 1.90925L12.3452 3.05125C13.1422 2.13217 14.2228 1.61569 15.3496 1.61527V0ZM19.6 6.51924C19.6 7.81954 19.152 9.06653 18.354 9.98562L19.3452 11.1276C20.4045 9.90534 20.9997 8.24773 21 6.51924H19.6ZM21 6.51924C21 4.79023 20.4047 3.13204 19.345 1.90944C18.2854 0.686847 16.8482 0 15.3496 0V1.61527C16.4769 1.61527 17.558 2.13194 18.3551 3.05161C19.1522 3.97129 19.6 5.21863 19.6 6.51924H21ZM5.6504 1.61527C6.7774 1.61527 7.8582 2.13216 8.6548 3.05287L9.6446 1.90925C8.58522 0.687077 7.14853 0.000328056 5.6504 0V1.61527ZM1.4 6.51924C1.4 5.21863 1.84781 3.97129 2.64491 3.05161C3.44202 2.13194 4.52312 1.61527 5.6504 1.61527V0C4.15182 0 2.71462 0.686847 1.65496 1.90944C0.595308 3.13204 0 4.79023 0 6.51924H1.4ZM2.6446 9.98562C2.24979 9.53055 1.93794 8.9902 1.72415 8.39543C1.51035 7.80067 1.40021 7.16313 1.4 6.51924H0C0 8.24759 0.595 9.90486 1.6548 11.1276L2.6446 9.98562Z" fill="#F9F2E8"/>
</svg>
