<svg width="25" height="21" viewBox="0 0 25 21" fill="none" xmlns="http://www.w3.org/2000/svg">
<path d="M12.446 20.1909L11.8953 20.7627C11.9675 20.8379 12.0534 20.8976 12.1479 20.9383C12.2424 20.979 12.3437 21 12.446 21C12.5483 21 12.6496 20.979 12.7441 20.9383C12.8386 20.8976 12.9244 20.8379 12.9966 20.7627L12.446 20.1909ZM12.446 4.03818L11.8953 4.60999C11.9675 4.6852 12.0534 4.74488 12.1479 4.78559C12.2424 4.82631 12.3437 4.84726 12.446 4.84726C12.5483 4.84726 12.6496 4.82631 12.7441 4.78559C12.8386 4.74488 12.9244 4.6852 12.9966 4.60999L12.446 4.03818ZM12.9966 19.6191L3.71774 9.98562L2.61796 11.1276L11.8953 20.7627L12.9966 19.6191ZM21.1742 9.98562L11.8953 19.6191L12.9966 20.7627L22.274 11.1276L21.1742 9.98562ZM10.3957 3.05125L11.8953 4.60999L12.9966 3.46638L11.4955 1.90925L10.3957 3.05125ZM12.9966 4.60999L14.4962 3.05125L13.3964 1.90925L11.8953 3.46638L12.9966 4.60999ZM17.8344 0C16.17 0 14.574 0.686491 13.3964 1.90925L14.4962 3.05125C15.3817 2.13217 16.5824 1.61569 17.8344 1.61527V0ZM22.5571 6.51924C22.5571 7.81954 22.0593 9.06653 21.1726 9.98562L22.274 11.1276C23.451 9.90534 24.1123 8.24773 24.1126 6.51924H22.5571ZM24.1126 6.51924C24.1126 4.79023 23.4512 3.13204 22.2738 1.90944C21.0964 0.686847 19.4995 0 17.8344 0V1.61527C19.0869 1.61527 20.2882 2.13194 21.1738 3.05161C22.0595 3.97129 22.5571 5.21863 22.5571 6.51924H24.1126ZM7.05752 1.61527C8.30974 1.61527 9.51063 2.13216 10.3957 3.05287L11.4955 1.90925C10.3184 0.687077 8.7221 0.000328056 7.05752 0V1.61527ZM2.33485 6.51924C2.33485 5.21863 2.83242 3.97129 3.71809 3.05161C4.60376 2.13194 5.80499 1.61527 7.05752 1.61527V0C5.39243 0 3.79554 0.686847 2.61815 1.90944C1.44075 3.13204 0.779297 4.79023 0.779297 6.51924H2.33485ZM3.71774 9.98562C3.27906 9.53055 2.93256 8.9902 2.69501 8.39543C2.45747 7.80067 2.33508 7.16313 2.33485 6.51924H0.779297C0.779297 8.24759 1.44041 9.90486 2.61796 11.1276L3.71774 9.98562Z" fill="#0C1617"/>
</svg>
