<svg width="21" height="19" viewBox="0 0 21 19" fill="none" xmlns="http://www.w3.org/2000/svg">
<path d="M20.8207 4.17009C20.6996 3.69637 20.5128 3.24195 20.2657 2.82009C20.0283 2.38123 19.7247 1.98155 19.3657 1.63509C18.8451 1.11629 18.2287 0.703632 17.5507 0.420087C16.1859 -0.140029 14.6554 -0.140029 13.2907 0.420087C12.6498 0.691344 12.061 1.07202 11.5507 1.54509L11.4757 1.63509L10.5007 2.61009L9.52566 1.63509L9.45066 1.54509C8.94028 1.07202 8.35151 0.691344 7.71066 0.420087C6.34589 -0.140029 4.81542 -0.140029 3.45066 0.420087C2.77263 0.703632 2.1562 1.11629 1.63566 1.63509C0.9237 2.32783 0.419713 3.20591 0.180656 4.17009C0.0534782 4.65972 -0.00706779 5.16427 0.000655616 5.67009C0.000655616 6.14709 0.0606556 6.62109 0.180656 7.08009C0.306406 7.54515 0.487712 7.99338 0.720656 8.41509C0.972229 8.8486 1.27988 9.24703 1.63566 9.60009L10.5007 18.4651L19.3657 9.60009C19.7212 9.25209 20.0257 8.85309 20.2657 8.41509C20.7528 7.58275 21.0067 6.63451 21.0007 5.67009C21.0084 5.16427 20.9479 4.65971 20.8207 4.17009Z" fill="#0C1617"/>
</svg>
