<svg width="29" height="28" viewBox="0 0 29 28" fill="none" xmlns="http://www.w3.org/2000/svg">
<path d="M15.8803 0.00172249C16.9311 -0.00219768 17.9819 0.00806973 19.0323 0.0325216L19.3117 0.0423212C19.6342 0.0535208 19.9524 0.0675203 20.3369 0.0843197C21.869 0.154317 22.9144 0.38951 23.8316 0.735298C24.782 1.09089 25.5826 1.57247 26.3832 2.35084C27.1152 3.05027 27.6817 3.89632 28.0434 4.83016C28.3991 5.72193 28.641 6.73969 28.713 8.22924C28.7302 8.60163 28.7446 8.91242 28.7562 9.22601L28.7648 9.4976C28.7904 10.5184 28.8014 11.5396 28.7979 12.5607L28.7994 13.6051V15.439C28.8029 16.4606 28.7919 17.4822 28.7662 18.5035L28.7576 18.7751C28.7461 19.0887 28.7317 19.3981 28.7144 19.7718C28.6424 21.2614 28.3976 22.2778 28.0434 23.1695C27.6829 24.1044 27.1162 24.9511 26.3832 25.6503C25.6631 26.3619 24.7925 26.9127 23.8316 27.2644C22.9144 27.6102 21.869 27.8454 20.3369 27.9154C19.9524 27.9322 19.6342 27.9462 19.3117 27.9574L19.0323 27.9658C17.9819 27.9907 16.9311 28.0014 15.8803 27.998L14.8062 27.9994H12.9213C11.8705 28.0028 10.8198 27.9921 9.76929 27.9672L9.48994 27.9588C9.14812 27.9467 8.80637 27.9327 8.46472 27.9168C6.93263 27.8468 5.88725 27.6088 4.96858 27.2644C4.00769 26.9135 3.13733 26.3626 2.41847 25.6503C1.68561 24.9507 1.11854 24.1041 0.756792 23.1695C0.40113 22.2778 0.159223 21.2614 0.0872263 19.7718C0.0711897 19.4397 0.0567904 19.1074 0.0440286 18.7751L0.0368291 18.5035C0.0102821 17.4822 -0.00171862 16.4606 0.000830838 15.439V12.5607C-0.00318795 11.5396 0.00737263 10.5184 0.0325093 9.4976L0.0425888 9.22601C0.0541082 8.91242 0.0685074 8.60163 0.0857865 8.22924C0.157783 6.73829 0.39969 5.72333 0.755352 4.83016C1.11731 3.89586 1.68549 3.05004 2.41991 2.35224C3.13828 1.63932 4.00809 1.08749 4.96858 0.735298C5.88725 0.38951 6.93119 0.154317 8.46472 0.0843197L9.48994 0.0423212L9.76929 0.0353216C10.8193 0.0095244 11.8695 -0.00214312 12.9198 0.000322644L15.8803 0.00172249ZM14.4001 7.00148C13.4461 6.98837 12.499 7.15971 11.6138 7.50556C10.7286 7.85141 9.92285 8.36487 9.24349 9.01609C8.56413 9.66732 8.02468 10.4433 7.65647 11.299C7.28826 12.1547 7.09865 13.073 7.09865 14.0005C7.09865 14.9281 7.28826 15.8464 7.65647 16.7021C8.02468 17.5578 8.56413 18.3338 9.24349 18.985C9.92285 19.6362 10.7286 20.1497 11.6138 20.4955C12.499 20.8414 13.4461 21.0127 14.4001 20.9996C16.3096 20.9996 18.1408 20.2621 19.491 18.9494C20.8412 17.6367 21.5997 15.8563 21.5997 13.9998C21.5997 12.1434 20.8412 10.363 19.491 9.05027C18.1408 7.73756 16.3096 7.00148 14.4001 7.00148ZM14.4001 9.80139C14.9739 9.79111 15.5441 9.8921 16.0773 10.0985C16.6105 10.3048 17.0961 10.6124 17.5057 11.0033C17.9153 11.3942 18.2406 11.8605 18.4628 12.375C18.6849 12.8895 18.7994 13.4418 18.7995 13.9998C18.7995 14.5578 18.6853 15.1102 18.4633 15.6248C18.2414 16.1394 17.9162 16.6058 17.5067 16.9968C17.0973 17.3878 16.6118 17.6955 16.0786 17.9021C15.5455 18.1086 14.9754 18.2098 14.4015 18.1997C13.2559 18.1997 12.1571 17.7572 11.347 16.9696C10.5369 16.182 10.0818 15.1137 10.0818 13.9998C10.0818 12.886 10.5369 11.8177 11.347 11.0301C12.1571 10.2425 13.2559 9.79999 14.4015 9.79999L14.4001 9.80139ZM21.9597 4.90156C21.4952 4.91963 21.0559 5.11176 20.7338 5.4377C20.4117 5.76364 20.2318 6.1981 20.2318 6.6501C20.2318 7.10209 20.4117 7.53656 20.7338 7.8625C21.0559 8.18843 21.4952 8.38056 21.9597 8.39864C22.4371 8.39864 22.8949 8.21427 23.2324 7.88609C23.57 7.55791 23.7596 7.11281 23.7596 6.6487C23.7596 6.18458 23.57 5.73948 23.2324 5.4113C22.8949 5.08312 22.4371 4.89876 21.9597 4.89876V4.90156Z" fill="#DFAD9A"/>
</svg>
