<svg width="20" height="21" viewBox="0 0 20 21" fill="none" xmlns="http://www.w3.org/2000/svg">
<path d="M6.24835 8.48L6.24835 4.59615C6.24835 3.64239 6.63956 2.7277 7.33594 2.05329C8.03231 1.37888 8.97679 1 9.96161 1C10.9464 1 11.8909 1.37888 12.5873 2.05329C13.2836 2.7277 13.6749 3.64239 13.6749 4.59615L13.6749 8.48M18.6952 18.1033C18.7186 18.3051 18.6976 18.5094 18.6336 18.7028C18.5696 18.8962 18.464 19.0742 18.3239 19.2253C18.1833 19.3761 18.0114 19.4964 17.8194 19.5782C17.6274 19.66 17.4197 19.7015 17.2099 19.7H2.71332C2.50356 19.7015 2.29583 19.66 2.10383 19.5782C1.91182 19.4964 1.73989 19.3761 1.59935 19.2253C1.45918 19.0742 1.35363 18.8962 1.28963 18.7028C1.22562 18.5094 1.20463 18.3051 1.22802 18.1033L2.53509 6.75383H17.3881L18.6952 18.1033Z" stroke="white" stroke-linecap="round" stroke-linejoin="round"/>
</svg>
