<svg width="24" height="24" viewBox="0 0 24 24" fill="none" xmlns="http://www.w3.org/2000/svg">
<path d="M3.60358 0.000639783C3.20125 0.012807 2.8478 0.225128 2.55198 0.520942L0.921144 2.14864C0.882295 2.18574 0.851249 2.23022 0.82983 2.27948C0.80841 2.32875 0.797049 2.38181 0.796413 2.43553C0.795776 2.48924 0.805878 2.54251 0.826124 2.59227C0.84637 2.64202 0.876353 2.68723 0.914312 2.72524C0.952272 2.76325 0.997442 2.7933 1.04717 2.81362C1.0969 2.83393 1.15019 2.84412 1.20391 2.84355C1.25762 2.84299 1.31068 2.83172 1.35998 2.81037C1.40927 2.78901 1.4538 2.75801 1.49095 2.71921L2.05212 2.15806L5.34366 5.53209C5.71748 5.93881 6.31735 5.35447 5.92054 4.97016L2.62114 1.58902L3.11944 1.09072C3.32594 0.884215 3.49233 0.810341 3.62715 0.806204C3.76206 0.801641 3.92478 0.857006 4.15846 1.09072L7.61662 4.54575C7.77917 4.7083 7.77917 4.95065 7.61662 5.1132L5.75078 6.97826C5.27853 7.45052 5.12058 7.99806 5.17468 8.45823C5.22883 8.91839 5.45494 9.27752 5.64389 9.52157C6.37429 10.465 7.50781 12.122 9.37164 13.9858C11.2355 15.8496 12.8932 16.9839 13.8366 17.7143C14.0807 17.9032 14.4398 18.1294 14.9 18.1835C15.3601 18.2377 15.9069 18.0796 16.3791 17.6074L16.9372 17.0509L20.235 20.4203C20.6074 20.8654 21.2459 20.24 20.8087 19.8583L17.5046 16.4835L18.245 15.7447C18.4075 15.5821 18.6499 15.5821 18.8124 15.7447L22.2667 19.1989C22.5003 19.4326 22.5561 19.5962 22.552 19.731C22.5474 19.8659 22.4732 20.0322 22.2667 20.2387L20.639 21.8664C19.9598 22.5455 19.0675 22.5526 18.509 22.5526C16.4004 22.5526 12.6496 21.7609 7.12304 16.2344C1.59651 10.7078 0.804821 6.95777 0.804821 4.84915C0.804821 4.64791 0.803613 4.40048 0.837818 4.13549C0.84899 4.08117 0.848814 4.02516 0.8373 3.97091C0.825786 3.91665 0.803183 3.86535 0.77091 3.82025C0.738637 3.77514 0.697391 3.73721 0.649758 3.70881C0.602126 3.6804 0.549137 3.66211 0.494115 3.65515C0.439093 3.64819 0.383228 3.65272 0.330023 3.66838C0.276819 3.68403 0.227424 3.71047 0.184939 3.74612C0.142455 3.78177 0.107796 3.82585 0.0831395 3.87552C0.0584828 3.9252 0.0443599 3.97942 0.041657 4.03482C-1.61135e-05 4.35982 0 4.64622 0 4.84827C0 7.16556 0.927184 11.1725 6.55636 16.8017C12.1855 22.4309 16.1917 23.3581 18.509 23.3581C19.0691 23.3581 20.2823 23.3642 21.2095 22.437L22.8372 20.8093C23.1331 20.5134 23.3452 20.1569 23.3575 19.7545C23.3697 19.3522 23.1719 18.9637 22.8372 18.6291L19.383 15.174C18.915 14.706 18.1423 14.706 17.6744 15.174L15.8125 17.0399C15.4799 17.3724 15.2306 17.4122 14.9919 17.3841C14.7533 17.3561 14.5106 17.2181 14.3302 17.0784C13.3465 16.3168 11.753 15.2267 9.94222 13.4159C8.1314 11.605 7.04129 10.0116 6.27971 9.02791C6.14009 8.84752 6.00204 8.60403 5.97398 8.3654C5.94585 8.12677 5.98904 7.87819 6.32137 7.54563L8.18406 5.68373C8.65204 5.21576 8.65203 4.44306 8.18406 3.97508L4.72904 0.52085C4.3944 0.186191 4.00588 -0.0117251 3.60358 0.000639783Z" fill="#DFAD9A"/>
</svg>
