<svg width="26" height="26" viewBox="0 0 26 26" fill="none" xmlns="http://www.w3.org/2000/svg">
<path d="M24.0557 1.81999C23.9214 1.68565 23.7199 1.68565 23.5855 1.81999L22.3429 3.06258C22.2086 3.19691 22.2086 3.39841 22.3429 3.53275C22.4101 3.6335 22.5109 3.6335 22.578 3.6335C22.6788 3.6335 22.7459 3.59991 22.8131 3.53275L24.0557 2.29016C24.19 2.15582 24.19 1.95432 24.0557 1.81999Z" fill="#DFAD9A"/>
<path d="M25.9021 4.30499C25.8349 4.13708 25.6334 4.00274 25.4655 4.06991L23.7527 4.54008C23.5848 4.57366 23.4505 4.77516 23.5177 4.94308C23.5512 5.07742 23.6856 5.17817 23.8535 5.17817C23.8871 5.17817 23.9207 5.17817 23.9542 5.17817L25.667 4.708C25.8349 4.67441 25.9693 4.47291 25.9021 4.30499Z" fill="#DFAD9A"/>
<path d="M21.5393 0.00636409C21.3714 -0.0272194 21.1699 0.0735311 21.1363 0.275032L20.7669 1.98779C20.7333 2.15571 20.8677 2.35721 21.0356 2.39079C21.0692 2.39079 21.0692 2.39079 21.1027 2.39079C21.2707 2.39079 21.405 2.29004 21.4386 2.12213L21.808 0.409366C21.8416 0.241449 21.7408 0.0399476 21.5393 0.00636409Z" fill="#DFAD9A"/>
<path d="M22.4783 6.79024L19.2207 3.53264C19.1536 3.46547 19.0192 3.43188 18.8849 3.43188L16.1982 4.10356C16.1982 4.10356 16.1982 4.10356 16.1646 4.10356C16.1646 4.10356 16.131 4.10356 16.131 4.13714C16.0975 4.13714 16.0975 4.17072 16.0639 4.17072C16.0639 4.17072 16.0639 4.17072 16.0303 4.17072C15.9967 4.20431 15.9967 4.20431 15.9967 4.23789C15.9967 4.23789 15.9967 4.27147 15.9631 4.27147C15.9631 4.30506 15.9631 4.33864 15.9631 4.37222V4.40581L16.0975 8.7045C14.3175 7.19324 12.1346 6.38723 9.78376 6.38723C7.16425 6.38723 4.71265 7.39474 2.86556 9.24183C1.08563 11.1561 0.078125 13.6077 0.078125 16.2272C0.078125 18.8467 1.08563 21.2983 2.93272 23.1454C4.77982 24.9925 7.23141 26 9.85093 26C12.4704 26 14.922 24.9925 16.7691 23.1454C18.6162 21.2983 19.6237 18.8467 19.6237 16.2272C19.6237 13.8764 18.8177 11.6598 17.3065 9.9135L21.6052 10.0478C21.6387 10.0478 21.6723 10.0478 21.7395 10.0143H21.7731C21.8067 10.0143 21.8402 9.98067 21.8402 9.98067C21.8402 9.98067 21.8402 9.98067 21.8402 9.94709C21.8738 9.9135 21.8738 9.9135 21.8738 9.87992C21.8738 9.87992 21.8738 9.84634 21.9074 9.84634C21.9074 9.84634 21.9074 9.84634 21.9074 9.81275L22.5791 7.12607C22.6127 7.02532 22.5791 6.89099 22.4783 6.79024ZM18.9185 4.17072L19.9931 5.21181L18.0789 5.71556L17.0042 4.64089L18.9185 4.17072ZM20.1611 5.8499L19.7581 7.36116L18.6498 6.2529L20.1611 5.8499ZM17.5751 6.15215L16.8027 7.96566L16.702 5.27898L17.5751 6.15215ZM18.9521 16.2272C18.9521 18.6452 18.0117 20.9625 16.299 22.6752C14.5862 24.388 12.3025 25.3283 9.85093 25.3283C7.43291 25.3283 5.11565 24.388 3.40289 22.6752C1.69013 20.9625 0.749795 18.6452 0.749795 16.2272C0.749795 13.8092 1.69013 11.4919 3.40289 9.77917C5.11565 8.06641 7.39933 7.12607 9.85093 7.12607C12.2689 7.12607 14.5862 8.06641 16.299 9.77917C18.0117 11.4919 18.9521 13.7756 18.9521 16.2272ZM17.1721 8.83883L18.0789 6.6559L19.3551 7.93208L17.1721 8.83883ZM17.911 9.24183L19.8588 8.43583L20.7656 9.34258L17.911 9.24183ZM21.4372 9.04033L20.2954 7.89849L20.7992 5.98423L21.9074 7.09249L21.4372 9.04033Z" fill="#DFAD9A"/>
<path d="M9.85058 7.86499C5.24963 7.86499 1.48828 11.5928 1.48828 16.2273C1.48828 20.8282 5.24963 24.5896 9.85058 24.5896C14.4515 24.5896 18.2129 20.8618 18.2129 16.2273C18.2129 11.6263 14.4851 7.86499 9.85058 7.86499ZM9.85058 23.9515C5.61905 23.9515 2.15995 20.4588 2.15995 16.2273C2.15995 11.9958 5.61905 8.57024 9.85058 8.57024C14.0821 8.57024 17.5412 12.0293 17.5412 16.2609C17.5412 20.4924 14.0821 23.9515 9.85058 23.9515Z" fill="#DFAD9A"/>
</svg>
