<svg width="25" height="25" viewBox="0 0 25 25" fill="none" xmlns="http://www.w3.org/2000/svg">
<path d="M24.6896 0.346661C24.4856 0.31266 24.3496 0.482668 24.3156 0.652677C24.3156 0.754682 23.2615 11.0912 12.483 15.5794C1.73846 11.0912 0.68441 0.754682 0.68441 0.652677C0.68441 0.482668 0.514401 0.31266 0.310391 0.346661C0.140383 0.346661 -0.0296253 0.51667 0.00437633 0.72068C0.00437633 0.822685 1.09243 11.3972 12.007 16.0894L7.41674 20.7137C7.38274 20.7477 7.38274 20.7817 7.34874 20.8157V20.8497C7.34874 20.8837 7.34874 20.9177 7.31474 20.9517C7.31474 20.9517 7.31474 20.9517 7.31474 20.9857C7.31474 20.9857 7.31474 20.9857 7.31474 21.0197C7.31474 21.0537 7.31474 21.0877 7.31474 21.0877V21.1217C7.31474 21.1217 7.31474 21.1217 7.31474 21.1557L9.18483 24.4879C9.25283 24.5899 9.35484 24.6579 9.49084 24.6579H15.4751C15.6111 24.6579 15.7132 24.5899 15.7812 24.4879L17.6512 21.1557C17.6512 21.1557 17.6512 21.1557 17.6512 21.1217V21.0877C17.6512 21.0537 17.6512 21.0197 17.6512 21.0197C17.6512 21.0197 17.6512 21.0197 17.6512 20.9857C17.6512 20.9857 17.6512 20.9857 17.6512 20.9517C17.6512 20.9177 17.6512 20.8837 17.6172 20.8497V20.8157C17.6172 20.7817 17.5832 20.7477 17.5492 20.7137L12.993 16.0894C23.9076 11.3972 24.9956 0.822685 24.9956 0.72068C25.0296 0.51667 24.8596 0.346661 24.6896 0.346661ZM11.769 17.2795L10.5109 20.6117H8.47079L11.769 17.2795ZM9.69485 23.9438L8.23278 21.2917H10.5449L12.007 23.9438H9.69485ZM11.3269 21.2917H13.7751L12.551 23.5358L11.3269 21.2917ZM15.3051 23.9438H13.095L14.5571 21.2917H16.7672L15.3051 23.9438ZM16.5292 20.6117H14.5911L13.401 17.4495L16.5292 20.6117ZM13.8771 20.6117H11.2249L12.551 17.1095L13.8771 20.6117Z" fill="#DFAD9A"/>
</svg>
