<svg width="18" height="18" viewBox="0 0 18 18" fill="none" xmlns="http://www.w3.org/2000/svg">
<path d="M16.92 17.7905C17.38 18.2505 18.09 17.5405 17.63 17.0905L13.88 13.3305C15.1954 11.8751 15.9226 9.98238 15.92 8.02055C15.92 3.63055 12.35 0.0605469 7.96 0.0605469C3.57 0.0605469 0 3.63055 0 8.02055C0 12.4105 3.57 15.9805 7.96 15.9805C9.94 15.9805 11.77 15.2505 13.17 14.0405L16.92 17.7905ZM0.999 8.02055C0.999 4.18055 4.129 1.06055 7.959 1.06055C11.799 1.06055 14.919 4.18055 14.919 8.02055C14.919 11.8605 11.799 14.9805 7.959 14.9805C4.129 14.9805 0.999 11.8605 0.999 8.02055Z" fill="#0C1617"/>
</svg>
