<svg width="22" height="21" viewBox="0 0 22 21" fill="none" xmlns="http://www.w3.org/2000/svg">
<path d="M6.70075 8.48L6.70075 4.59615C6.70075 3.64239 7.13543 2.7277 7.90918 2.05329C8.68292 1.37888 9.73235 1 10.8266 1C11.9208 1 12.9703 1.37888 13.744 2.05329C14.5177 2.7277 14.9524 3.64239 14.9524 4.59615L14.9524 8.48M20.5306 18.1033C20.5566 18.3051 20.5332 18.5094 20.4621 18.7028C20.391 18.8962 20.2737 19.0742 20.118 19.2253C19.9618 19.3761 19.7708 19.4964 19.5575 19.5782C19.3441 19.66 19.1133 19.7015 18.8802 19.7H2.77294C2.53987 19.7015 2.30907 19.66 2.09572 19.5782C1.88238 19.4964 1.69135 19.3761 1.53519 19.2253C1.37945 19.0742 1.26217 18.8962 1.19106 18.7028C1.11994 18.5094 1.09662 18.3051 1.12261 18.1033L2.5749 6.75383H19.0783L20.5306 18.1033Z" stroke="#0C1617" stroke-linecap="round" stroke-linejoin="round"/>
</svg>
