<svg width="423" height="105" viewBox="0 0 423 105" fill="none" xmlns="http://www.w3.org/2000/svg">
<path d="M217.372 20.7382C274.051 26.3275 324.673 34.967 360.697 44.4129C378.713 49.1369 393.055 54.0569 402.675 58.8881C407.488 61.3049 411.091 63.6862 413.382 65.9899C415.681 68.3019 416.586 70.4588 416.209 72.4416C415.833 74.4245 414.157 76.327 411.081 78.1089C408.016 79.8844 403.657 81.4805 398.121 82.8768C387.054 85.6679 371.404 87.6304 352.29 88.6928C314.07 90.8172 262.088 89.3386 205.409 83.7494C148.73 78.1601 98.1084 69.5206 62.0846 60.0746C44.0689 55.3507 29.7264 50.4306 20.1064 45.5995C15.2938 43.1826 11.6905 40.8014 9.39962 38.4977C7.10049 36.1857 6.19598 34.0287 6.57244 32.0459C6.94889 30.0631 8.62413 28.1605 11.7005 26.3786C14.7658 24.6032 19.1243 23.007 24.6608 21.6107C35.728 18.8196 51.3772 16.8572 70.4915 15.7948C108.712 13.6703 160.694 15.1489 217.372 20.7382Z" stroke="#DFAD9A"/>
<path d="M212.08 19.5407C267.83 14.3091 318.213 13.2893 354.599 15.866C372.797 17.1546 387.47 19.3413 397.559 22.3408C402.606 23.8413 406.477 25.537 409.066 27.4056C411.662 29.2794 412.893 31.2694 412.849 33.3395C412.806 35.4096 411.485 37.639 408.8 40.0084C406.122 42.3712 402.164 44.8016 397.034 47.2572C386.778 52.1659 371.954 57.1206 353.63 61.8364C316.99 71.2659 266.451 79.7167 210.7 84.9483C154.95 90.1799 104.567 91.1998 68.1803 88.6231C49.983 87.3344 35.3095 85.1478 25.2204 82.1482C20.1733 80.6477 16.3025 78.952 13.7138 77.0834C11.118 75.2096 9.8868 73.2196 9.93045 71.1495C9.97411 69.0794 11.2943 66.85 13.9796 64.4806C16.6575 62.1178 20.6154 59.6874 25.7459 57.2319C36.0017 52.3232 50.8258 47.3684 69.1497 42.6526C105.789 33.2231 156.329 24.7724 212.08 19.5407Z" stroke="#DFAD9A"/>
</svg>
