<svg width="28" height="26" viewBox="0 0 28 26" fill="none" xmlns="http://www.w3.org/2000/svg">
<path d="M17.1266 19.7153H20.9502V16.1705L15.4936 10.6741C15.4538 10.6343 15.4538 10.5944 15.4139 10.5546V10.5148C15.4139 10.4749 15.4139 10.4351 15.3741 10.3953C15.3741 10.3953 15.3741 10.3953 15.3741 10.3555C15.3741 10.3555 15.3741 10.3555 15.3741 10.3156C15.3741 10.2758 15.3741 10.236 15.3741 10.236V10.1961C15.3741 10.1961 15.3741 10.1961 15.3741 10.1563L17.5249 6.33269C17.6046 6.2132 17.724 6.13354 17.8834 6.13354H24.8137C24.973 6.13354 25.0925 6.2132 25.1721 6.33269L27.3229 10.1563C27.3229 10.1563 27.3229 10.1563 27.3229 10.1961V10.236C27.3229 10.2758 27.3229 10.3156 27.3229 10.3156C27.3229 10.3156 27.3229 10.3156 27.3229 10.3555C27.3229 10.3555 27.3229 10.3555 27.3229 10.3953C27.3229 10.4351 27.3229 10.4749 27.2831 10.5148V10.5546C27.2831 10.5944 27.2432 10.6343 27.2034 10.6741L21.707 16.2104V19.7552H25.4908V19.7153C26.8848 19.7153 28 20.8306 28 22.2246C28 23.6186 26.8848 24.7338 25.4908 24.7338C24.0967 24.7338 22.9815 23.6186 22.9815 22.2246C22.9815 21.9856 23.1408 21.8263 23.3798 21.8263C23.6188 21.8263 23.7781 21.9856 23.7781 22.2246C23.7781 23.1805 24.5349 23.9372 25.4908 23.9372C26.4467 23.9372 27.2034 23.1805 27.2034 22.2246C27.2034 21.2687 26.4467 20.5119 25.4908 20.5119H21.7468L21.707 25.2516C21.707 25.4906 21.5477 25.6499 21.3087 25.6499C21.0697 25.6499 20.9104 25.4508 20.9104 25.2516L20.9502 20.5119H17.1266C16.1707 20.5119 15.4139 21.2687 15.4139 22.2246C15.4139 23.1805 16.1707 23.9372 17.1266 23.9372C18.0825 23.9372 18.8393 23.1805 18.8393 22.2246C18.8393 21.9856 18.9986 21.8263 19.2376 21.8263C19.4765 21.8263 19.6358 21.9856 19.6358 22.2246C19.6358 23.6186 18.5206 24.7338 17.1266 24.7338C15.7326 24.7338 14.6174 23.6186 14.6174 22.2246C14.6174 20.8306 15.7326 19.7153 17.1266 19.7153ZM20.5121 14.5375L19.0782 10.7537H16.7283L20.5121 14.5375ZM18.1622 6.93013L16.4495 9.95716H19.1181L20.7909 6.93013H18.1622ZM20.0341 9.95716H22.8222L21.4282 7.40808L20.0341 9.95716ZM24.6145 6.93013H22.1053L23.7781 9.95716H26.3272L24.6145 6.93013ZM26.0484 10.7537H23.8179L22.4637 14.3384L26.0484 10.7537ZM21.4282 14.7367L22.9417 10.7537H19.9147L21.4282 14.7367Z" fill="#DFAD9A"/>
<path d="M2.50941 13.9403H6.33303V10.0768L0.876413 4.54054C0.836584 4.50071 0.836582 4.46088 0.796753 4.42105V4.38122C0.796753 4.34139 0.796754 4.30156 0.756925 4.26173C0.756925 4.26173 0.756925 4.26173 0.756925 4.22191C0.756925 4.22191 0.756925 4.22191 0.756925 4.18208C0.756925 4.14225 0.756925 4.10242 0.756925 4.10242V4.06259C0.756925 4.06259 0.756925 4.06259 0.756925 4.02276L2.90771 0.199146C2.98737 0.0796586 3.10685 0 3.26617 0H10.1965C10.3558 0 10.4753 0.0796586 10.5549 0.199146L12.7057 4.02276C12.7057 4.02276 12.7057 4.02276 12.7057 4.06259V4.10242C12.7057 4.14225 12.7057 4.18208 12.7057 4.18208C12.7057 4.18208 12.7057 4.18208 12.7057 4.22191C12.7057 4.22191 12.7057 4.22191 12.7057 4.26173C12.7057 4.30156 12.7057 4.34139 12.6659 4.38122V4.42105C12.6659 4.46088 12.6261 4.50071 12.5862 4.54054L7.08978 10.0768V13.9403H10.8736C12.2676 13.9403 13.3828 15.0555 13.3828 16.4495C13.3828 17.8435 12.2676 18.9587 10.8736 18.9587C9.47954 18.9587 8.36432 17.8435 8.36432 16.4495C8.36432 16.2105 8.52364 16.0512 8.76261 16.0512C9.00159 16.0512 9.16091 16.2105 9.16091 16.4495C9.16091 17.4054 9.91766 18.1622 10.8736 18.1622C11.8295 18.1622 12.5862 17.4054 12.5862 16.4495C12.5862 15.4936 11.8295 14.7368 10.8736 14.7368H7.12961L7.08978 19.4765C7.08978 19.7155 6.93047 19.8748 6.69149 19.8748C6.45251 19.8748 6.2932 19.6757 6.2932 19.4765L6.33303 14.7368H2.50941C1.55351 14.7368 0.796753 15.4936 0.796753 16.4495C0.796753 17.4054 1.55351 18.1622 2.50941 18.1622C3.46532 18.1622 4.22207 17.4054 4.22207 16.4495C4.22207 16.2105 4.38139 16.0512 4.62037 16.0512C4.85934 16.0512 5.01866 16.2105 5.01866 16.4495C5.01866 17.8435 3.90344 18.9587 2.50941 18.9587C1.11539 18.9587 0.000167847 17.8435 0.000167847 16.4495C0.000167847 15.0555 1.11539 13.9403 2.50941 13.9403ZM5.8949 8.44381L4.46105 4.66003H2.11112L5.8949 8.44381ZM3.54498 0.836415L1.83232 3.86344H4.50088L6.17371 0.836415H3.54498ZM5.41695 3.86344H8.205L6.81098 1.31437L5.41695 3.86344ZM9.95749 0.836415H7.44825L9.12108 3.86344H11.6702L9.95749 0.836415ZM11.3913 4.66003H9.16091L7.80671 8.24466L11.3913 4.66003ZM6.81098 8.64296L8.32449 4.66003H5.29747L6.81098 8.64296Z" fill="#DFAD9A"/>
</svg>
