<svg width="49" height="49" viewBox="0 0 49 49" fill="none" xmlns="http://www.w3.org/2000/svg">
<path d="M24.5 0L49 24.5L24.5 49L3.05176e-05 24.5L24.5 0Z" fill="#DFAD9A"/>
<path d="M36.3536 25.3536C36.5488 25.1583 36.5488 24.8417 36.3536 24.6464L33.1716 21.4645C32.9763 21.2692 32.6598 21.2692 32.4645 21.4645C32.2692 21.6597 32.2692 21.9763 32.4645 22.1716L35.2929 25L32.4645 27.8284C32.2692 28.0237 32.2692 28.3403 32.4645 28.5355C32.6598 28.7308 32.9763 28.7308 33.1716 28.5355L36.3536 25.3536ZM12 25.5L36 25.5L36 24.5L12 24.5L12 25.5Z" fill="white"/>
</svg>
