<svg width="30" height="28" viewBox="0 0 30 28" fill="none" xmlns="http://www.w3.org/2000/svg">
<path d="M25.1813 0H4.87435C2.53935 0 0.628906 1.85738 0.628906 4.12751V23.8725C0.628906 26.1426 2.53935 28 4.87435 28H25.1835C27.5185 28 29.4289 26.1426 29.4289 23.8725V4.12751C29.4268 1.85738 27.5185 0 25.1813 0ZM24.9086 14.9447H21.491V26.9661H16.3774V14.9447H13.8195V10.8007H16.3774V8.31384C16.3774 4.93341 17.8208 2.92228 21.9283 2.92228H25.3427V7.06527H23.2072C21.6109 7.06527 21.5048 7.64621 21.5048 8.72659L21.491 10.8007H25.3597L24.9086 14.9447Z" fill="#DFAD9A"/>
</svg>
