<svg width="30" height="28" viewBox="0 0 30 28" fill="none" xmlns="http://www.w3.org/2000/svg">
<path d="M4.42856 0C2.15927 0 0.31427 1.79375 0.31427 4V24C0.31427 26.2062 2.15927 28 4.42856 28H25C27.2693 28 29.1143 26.2062 29.1143 24V4C29.1143 1.79375 27.2693 0 25 0H4.42856ZM23.5278 5.25L16.855 12.6625L24.7043 22.75H18.5586L13.75 16.6313L8.2407 22.75H5.18713L12.3228 14.8188L4.79498 5.25H11.095L15.4471 10.8438L20.4743 5.25H23.5278ZM21.0978 20.975L10.1757 6.93125H8.35641L19.4007 20.975H21.0914H21.0978Z" fill="#DFAD9A"/>
</svg>
